<svg width="160" height="128" viewBox="0 0 160 128" fill="none" xmlns="http://www.w3.org/2000/svg">
  <defs>
    <linearGradient id="cardBg" x1="10" y1="8" x2="150" y2="122" gradientUnits="userSpaceOnUse">
      <stop offset="0" stop-color="#F4FAFF"/>
      <stop offset="0.55" stop-color="#EAF5FF"/>
      <stop offset="1" stop-color="#DFECFA"/>
    </linearGradient>
    <linearGradient id="cloudFill" x1="62" y1="26" x2="104" y2="66" gradientUnits="userSpaceOnUse">
      <stop offset="0" stop-color="#F7FAFF"/>
      <stop offset="1" stop-color="#DDE9F8"/>
    </linearGradient>
    <linearGradient id="rain" x1="88" y1="66" x2="108" y2="100" gradientUnits="userSpaceOnUse">
      <stop offset="0" stop-color="#49A7DB"/>
      <stop offset="1" stop-color="#0E78AA"/>
    </linearGradient>
    <filter id="drop" x="16" y="14" width="128" height="102" filterUnits="userSpaceOnUse" color-interpolation-filters="sRGB">
      <feOffset dy="8"/>
      <feGaussianBlur stdDeviation="6"/>
      <feColorMatrix type="matrix" values="0 0 0 0 0.08 0 0 0 0 0.18 0 0 0 0 0.28 0 0 0 0.2 0"/>
    </filter>
    <linearGradient id="gloss" x1="28" y1="18" x2="132" y2="68" gradientUnits="userSpaceOnUse">
      <stop offset="0" stop-color="#FFFFFF" stop-opacity="0.82"/>
      <stop offset="1" stop-color="#FFFFFF" stop-opacity="0"/>
    </linearGradient>
  </defs>

  <rect x="4" y="4" width="152" height="120" rx="26" fill="url(#cardBg)"/>

  <g filter="url(#drop)">
    <rect x="24" y="22" width="112" height="84" rx="24" fill="#FAFDFF"/>
  </g>

  <path d="M58 67H106C117 67 126 58 126 47C126 36 117 27 106 27C101 27 96 29 92 33C88 25 79 20 69 20C56 20 45 30 45 43C45 44 45 45 45 46C38 49 33 55 33 63C33 72 40 79 49 79H58V67Z" fill="url(#cloudFill)"/>
  <path d="M58 67H106C117 67 126 58 126 47C126 36 117 27 106 27C101 27 96 29 92 33C88 25 79 20 69 20C56 20 45 30 45 43C45 44 45 45 45 46C38 49 33 55 33 63C33 72 40 79 49 79H58" stroke="#C8DAEE" stroke-width="3"/>

  <path d="M76 72L70 86" stroke="url(#rain)" stroke-width="5" stroke-linecap="round"/>
  <path d="M92 72L86 90" stroke="url(#rain)" stroke-width="5" stroke-linecap="round"/>
  <path d="M108 72L102 86" stroke="url(#rain)" stroke-width="5" stroke-linecap="round"/>

  <ellipse cx="82" cy="30" rx="56" ry="15" fill="url(#gloss)"/>
  <rect x="20" y="98" width="120" height="10" rx="5" fill="#D7E7F5"/>
</svg>
