<svg width="160" height="128" viewBox="0 0 160 128" fill="none" xmlns="http://www.w3.org/2000/svg">
  <defs>
    <linearGradient id="cardBg" x1="10" y1="8" x2="150" y2="122" gradientUnits="userSpaceOnUse">
      <stop offset="0" stop-color="#F3FDFF"/>
      <stop offset="0.56" stop-color="#E7F9FE"/>
      <stop offset="1" stop-color="#DAF1F8"/>
    </linearGradient>
    <linearGradient id="wallet" x1="24" y1="36" x2="112" y2="92" gradientUnits="userSpaceOnUse">
      <stop offset="0" stop-color="#66D5F6"/>
      <stop offset="0.5" stop-color="#2DB2DB"/>
      <stop offset="1" stop-color="#1C8DBA"/>
    </linearGradient>
    <linearGradient id="coin" x1="126" y1="39" x2="126" y2="69" gradientUnits="userSpaceOnUse">
      <stop offset="0" stop-color="#FDE68A"/>
      <stop offset="1" stop-color="#F59E0B"/>
    </linearGradient>
    <filter id="drop" x="16" y="14" width="128" height="102" filterUnits="userSpaceOnUse" color-interpolation-filters="sRGB">
      <feOffset dy="8"/>
      <feGaussianBlur stdDeviation="6"/>
      <feColorMatrix type="matrix" values="0 0 0 0 0.043 0 0 0 0 0.251 0 0 0 0 0.32 0 0 0 0.22 0"/>
    </filter>
    <linearGradient id="gloss" x1="24" y1="18" x2="132" y2="70" gradientUnits="userSpaceOnUse">
      <stop offset="0" stop-color="#FFFFFF" stop-opacity="0.78"/>
      <stop offset="1" stop-color="#FFFFFF" stop-opacity="0"/>
    </linearGradient>
  </defs>

  <rect x="4" y="4" width="152" height="120" rx="26" fill="url(#cardBg)"/>

  <g filter="url(#drop)">
    <rect x="24" y="22" width="112" height="84" rx="24" fill="#FAFFFF"/>
  </g>

  <rect x="24" y="36" width="86" height="54" rx="11" fill="url(#wallet)"/>
  <rect x="24" y="48" width="86" height="13" fill="#58C6E8"/>
  <rect x="78" y="55" width="24" height="18" rx="6" fill="#D0F4FF"/>
  <circle cx="90" cy="64" r="3" fill="#146B8A"/>

  <circle cx="126" cy="54" r="15" fill="url(#coin)"/>
  <path d="M126 46V62M118 54H134" stroke="#A35C00" stroke-width="4" stroke-linecap="round"/>

  <ellipse cx="80" cy="30" rx="54" ry="15" fill="url(#gloss)"/>
  <rect x="20" y="98" width="120" height="10" rx="5" fill="#D2EAF0"/>
</svg>
